<?xml version="1.0" ?>
<svg id="Layer_1" style="enable-background:new 0 0 1024 1024;" version="1.1" viewBox="0 0 1024 1024" xml:space="preserve" 
    xmlns="http://www.w3.org/2000/svg" 
    xmlns:xlink="http://www.w3.org/1999/xlink">
    <path d="M316,568c-1.4-28.5-1.7-57.5-1-86.2c0-1.4,0.1-2.8,0.1-4.3c0.3-8.6,0.6-17.3,1.1-25.8  c0.4-8.6,1-17.2,1.6-25.6c0.6-8.5,1.4-17,2.2-25.5H101.6c-2.8,10.3-5.2,20.7-7.2,31.1c-1.5,7.8-2.8,15.9-3.9,23.9  c-1.1,8-1.9,16.1-2.5,24.1c-0.1,1.3-0.2,2.6-0.3,4c-1.8,26.8-1,53.9,2.3,80.6c2.5,20.4,6.6,40.6,12,60.4h218.2  C318.3,606.1,316.9,587.1,316,568z M656.9,400.6H363c-1,9.5-1.8,19.1-2.6,28.7c-0.6,8.1-1.1,16.4-1.6,24.7c-0.4,8.2-0.8,16.5-1,24.8  c0,1.4-0.1,2.7-0.1,4.1c-0.7,27.6-0.4,55.6,0.9,83c1,19.8,2.5,39.5,4.5,58.8h293.6C664.5,551.1,664.5,474.4,656.9,400.6z   M918.3,400.6H699.8c7.3,73.8,7.3,150.4-0.1,224.1h218.2C938.2,551.2,938.3,474.3,918.3,400.6z M809.1,212.8  C751.6,155.2,680.3,116.3,602.7,99c18.6,23.2,35.5,53.7,50.1,90.9c18.9,48.4,33,104.9,41.9,168.1h209.5  C883,303.9,850.5,254.1,809.1,212.8z M613,205.5c-28.9-73.9-66.4-116.4-102.8-116.6h-0.7c-36.4,0.3-73.9,42.8-102.8,116.6  c-16.9,43.1-30.1,95.5-38.5,152.5h283.2C643.1,300.9,629.9,248.6,613,205.5z M694.5,667.5c-8.9,62.6-22.9,118.6-41.7,166.6  c-14.6,37.2-31.5,67.7-50.1,90.9c77.6-17.3,148.9-56.2,206.5-113.8c41-41,73.3-90.2,94.4-143.8H694.5z M368.5,667.5  c8.4,56.5,21.5,108.3,38.3,151.1c28.9,73.9,66.4,116.4,102.8,116.6h0.7c36.4-0.3,73.9-42.8,102.8-116.6  c16.7-42.8,29.9-94.6,38.3-151.1H368.5z M367.1,834.1c-18.8-48-32.8-104-41.7-166.6H116.3c21.2,53.5,53.4,102.8,94.4,143.8  c57.6,57.6,128.8,96.5,206.5,113.8C398.5,901.8,381.6,871.3,367.1,834.1z M210.7,212.8c-41.4,41.4-73.8,91.1-95,145.2h209.5  c8.9-63.2,22.9-119.7,41.9-168.1c14.6-37.2,31.5-67.7,50.1-90.9C339.5,116.3,268.3,155.2,210.7,212.8z" 
    id="XMLID_119_"
    fill="#fff"/>
    <g id="XMLID_1_"/>
    <g id="XMLID_2_"/>
    <g id="XMLID_3_"/>
    <g id="XMLID_4_"/>
    <g id="XMLID_5_"/>
</svg>